<?xml version="1.0" encoding="UTF-8"?>
<svg id="Layer_1" data-name="Layer 1" xmlns="http://www.w3.org/2000/svg" viewBox="0 0 821.44 290.75">
  <defs>
    <style>
      .cls-1 {
        fill: #f1f2f2;
        stroke-width: 0px;
      }
    </style>
  </defs>
  <g>
    <g>
      <path class="cls-1" d="M790.35,183.67h-.3c-2.59,0-4.49.61-5.7,1.82-1.21,1.21-1.82,3.11-1.82,5.7v13.07c0,2.59.6,4.49,1.82,5.7s3.11,1.82,5.7,1.82h14.65v-.79h0v-4.75h-12.72c-1.55-.02-2.33-.81-2.33-2.37v-12.28c0-1.57.78-2.36,2.33-2.37h12.72v-5.54h-14.36Z"/>
      <path class="cls-1" d="M748.84,206.16h9.25v5.62h-16.48v-28.11h7.23v22.49Z"/>
      <path class="cls-1" d="M769.22,206.16h9.25v5.62h-16.48v-28.11h7.23v22.49Z"/>
    </g>
    <g>
      <path class="cls-1" d="M126.53,240.37l3.87.4,7.27,28.45-3.76-.39-2.04-8.66-10.92-1.14-3.82,8.05-3.52-.37,12.93-26.35ZM122.23,256.35l8.97.93-2.19-9.52c-.38-1.59-.82-4-.82-4h-.08s-.97,2.22-1.67,3.73l-4.21,8.86Z"/>
      <path class="cls-1" d="M143.39,242.04l3.45.32-2.52,27.44-3.45-.32,2.52-27.43Z"/>
      <path class="cls-1" d="M151.93,242.84l12.83,1.05c4.84.39,7.86,3.69,7.49,8.19-.27,3.34-1.93,5.6-5.32,6.41v.11c2.71,1.23,3.44,3.22,3.38,7.31-.05,4.44.32,5.59.79,5.98v.15s-3.74-.3-3.74-.3c-.54-.55-.57-1.59-.5-6.23.06-4.05-1.44-5.61-5.12-5.91l-7.64-.62-.95,11.6-3.46-.28,2.24-27.46ZM154.32,256.18l8.14.66c3.84.31,5.92-1.45,6.17-4.56.27-3.34-1.13-5.16-5.16-5.49l-8.33-.68-.82,10.06Z"/>
      <path class="cls-1" d="M180.97,258.94c.52-8.07,5.77-14.03,13.96-13.49,6.42.42,10.06,4.36,10.47,9.48l-3.38-.22c-.43-3.46-3.01-5.99-7.35-6.27-6.04-.39-9.73,4.27-10.15,10.73-.44,6.73,3,11.5,8.73,11.88,5.19.34,7.88-3.04,8.49-7.06l3.42.22c-.22,2.73-1.72,5.72-3.81,7.51-2.04,1.76-4.91,2.58-8.41,2.35-7.8-.51-12.49-6.79-11.95-15.14Z"/>
      <path class="cls-1" d="M208.25,260.69c.43-8.23,5.91-14.08,14.22-13.65,8.31.43,13.15,6.82,12.72,15.06-.43,8.23-5.91,14.08-14.22,13.65-8.31-.43-13.15-6.82-12.72-15.06ZM231.64,261.91c.34-6.46-2.87-11.53-9.33-11.87-6.46-.34-10.18,4.37-10.52,10.83-.34,6.46,2.87,11.49,9.34,11.83,6.46.34,10.18-4.33,10.52-10.79Z"/>
      <path class="cls-1" d="M239.85,248.53l3.66.15,11.76,19.65c.87,1.46,1.86,3.62,1.86,3.62h.08s.93-22.67.93-22.67l3.23.13-1.13,27.52-3.54-.15-11.84-19.69c-.83-1.38-1.9-3.51-1.9-3.51h-.08s-.93,22.59-.93,22.59l-3.23-.13,1.13-27.52Z"/>
      <path class="cls-1" d="M266.42,249.59l10.01.32c8.28.26,12.03,6.01,11.77,14.25-.26,8.24-4.63,13.54-12.91,13.28l-9.74-.31.88-27.54ZM275.27,274.4c6.47.21,9.18-3.87,9.39-10.34.21-6.47-1.97-10.93-8.44-11.14l-6.43-.2-.69,21.49,6.16.2Z"/>
      <path class="cls-1" d="M292.76,250.4l3.47.09-.72,27.54-3.47-.09.73-27.54Z"/>
      <path class="cls-1" d="M299.67,250.6l21.8.45-.06,3.04-9.17-.19-.51,24.5-3.47-.07.51-24.5-9.17-.19.06-3.04Z"/>
      <path class="cls-1" d="M324.9,251.08l3.47.05-.43,27.55-3.47-.05.43-27.55Z"/>
      <path class="cls-1" d="M332.34,264.98c.08-8.25,5.31-14.32,13.63-14.24,8.32.09,13.42,6.26,13.34,14.51-.08,8.25-5.31,14.32-13.63,14.24-8.32-.09-13.42-6.26-13.34-14.51ZM355.76,265.22c.07-6.47-3.35-11.4-9.83-11.47-6.47-.07-9.99,4.79-10.06,11.27-.06,6.47,3.35,11.36,9.83,11.43,6.47.07,9.99-4.75,10.06-11.23Z"/>
      <path class="cls-1" d="M363.45,251.51h3.66s12.53,19.18,12.53,19.18c.92,1.43,2,3.55,2,3.55h.08s.04-22.69.04-22.69h3.24s-.05,27.56-.05,27.56h-3.54s-12.6-19.22-12.6-19.22c-.88-1.35-2.04-3.43-2.04-3.43h-.08l-.04,22.62h-3.24s.05-27.56.05-27.56Z"/>
      <path class="cls-1" d="M390.16,251.52h3.47s.1,27.54.1,27.54h-3.47s-.1-27.54-.1-27.54Z"/>
      <path class="cls-1" d="M398.81,251.5l3.66-.03,12.73,19.04c.94,1.42,2.03,3.53,2.03,3.53h.08l-.2-22.7,3.24-.03.24,27.55-3.54.03-12.81-19.08c-.9-1.34-2.07-3.41-2.07-3.41h-.08s.2,22.62.2,22.62l-3.24.03-.24-27.55Z"/>
      <path class="cls-1" d="M446.37,274.82h-.08c-1.96,2.85-4.9,4.29-8.52,4.35-7.75.13-13.05-5.67-13.19-14.04-.14-8.09,4.34-14.53,13.01-14.68,6.4-.11,10.39,3.29,11.36,8.67l-3.58.06c-.83-3.65-3.45-5.8-7.81-5.73-6.63.11-9.55,5.13-9.44,11.61.11,6.74,4.12,11.18,9.71,11.09,5.66-.1,8.26-4,8.18-8.62v-.65s-8.3.14-8.3.14l-.05-3.01,11.75-.2.25,14.57-2.23.04-1.06-3.61Z"/>
      <path class="cls-1" d="M463.1,265.99l10.32-.28.08,2.85-10.32.28-.08-2.85Z"/>
      <path class="cls-1" d="M486.9,249.81l3.46-.13.44,11.7,14.71-.55-.44-11.7,3.46-.13,1.03,27.52-3.46.13-.49-13.01-14.71.55.49,13.01-3.47.13-1.03-27.52Z"/>
      <path class="cls-1" d="M513.55,248.77l19.44-.91.14,3.04-15.98.74.41,8.7,14.51-.68.14,2.93-14.51.68.45,9.66,16.44-.77.15,3.19-19.9.93-1.28-27.52Z"/>
      <path class="cls-1" d="M545.67,247.18l3.88-.22,11.72,26.92-3.77.21-3.4-8.22-10.96.62-2.48,8.55-3.54.2,8.55-28.07ZM543.98,263.64l9-.51-3.68-9.05c-.63-1.51-1.45-3.81-1.45-3.81h-.08s-.6,2.35-1.05,3.96l-2.74,9.42Z"/>
      <path class="cls-1" d="M557.36,246.52l21.76-1.44.2,3.04-9.15.61,1.62,24.45-3.46.23-1.62-24.45-9.15.61-.2-3.04Z"/>
      <path class="cls-1" d="M582.52,244.81l3.46-.26,2.03,27.47-3.46.26-2.04-27.47Z"/>
      <path class="cls-1" d="M591.04,244.2l3.65-.31,14.12,18.02c1.04,1.34,2.29,3.36,2.29,3.36h.08s-1.91-22.62-1.91-22.62l3.23-.27,2.31,27.45-3.53.3-14.2-18.06c-1-1.27-2.32-3.24-2.32-3.24h-.08s1.9,22.54,1.9,22.54l-3.23.27-2.31-27.45Z"/>
      <path class="cls-1" d="M640.32,263.66h-.08c-1.71,3.01-4.52,4.69-8.12,5.06-7.71.79-13.48-4.54-14.34-12.86-.83-8.05,3.09-14.84,11.71-15.73,6.36-.65,10.63,2.4,12.06,7.67l-3.57.37c-1.14-3.56-3.93-5.48-8.26-5.04-6.59.68-9.08,5.93-8.42,12.37.69,6.71,5.06,10.79,10.62,10.22,5.64-.58,7.89-4.68,7.42-9.28l-.07-.65-8.24.84-.31-2.99,11.69-1.2,1.49,14.49-2.22.23-1.37-3.5Z"/>
    </g>
    <g>
      <path class="cls-1" d="M395.36,129.64h-25.02c-7.61,0-13.14,1.79-16.59,5.36-3.44,3.57-5.17,9.3-5.17,17.2v57.52h19.58v-32.7h29.37v32.7h19.58v-57.52c0-7.89-1.72-13.63-5.17-17.2-3.44-3.57-8.97-5.36-16.59-5.36ZM368.17,161.22v-9.02c0-4.51,2.18-6.77,6.53-6.77h16.32c4.35,0,6.53,2.26,6.53,6.77v9.02h-29.37Z"/>
      <path class="cls-1" d="M650.53,129.64h-25.02c-7.61,0-13.14,1.79-16.59,5.36-3.44,3.57-5.17,9.3-5.17,17.2v57.52h19.58v-32.7h29.37v32.7h19.58v-57.52c0-7.89-1.72-13.63-5.17-17.2-3.44-3.57-8.97-5.36-16.59-5.36ZM623.34,161.22v-9.02c0-4.51,2.18-6.77,6.53-6.77h16.32c4.35,0,6.53,2.26,6.53,6.77v9.02h-29.37Z"/>
      <polygon class="cls-1" points="77.55 171.96 55.49 129.64 34.53 129.64 34.53 209.71 54.38 209.71 54.38 165.1 69.83 193.7 85.28 193.7 100.72 165.1 100.72 209.71 120.58 209.71 120.58 129.64 99.62 129.64 77.55 171.96"/>
      <polygon class="cls-1" points="130.23 209.71 191.45 209.71 191.45 193.7 150.08 193.7 150.08 177.11 182.63 177.11 182.63 161.1 150.08 161.1 150.08 145.65 191.45 145.65 191.45 129.64 130.23 129.64 130.23 209.71"/>
      <polygon class="cls-1" points="319.09 161.1 291.51 161.1 291.51 129.64 271.65 129.64 271.65 209.71 291.51 209.71 291.51 177.11 319.09 177.11 319.09 209.71 338.95 209.71 338.95 129.64 319.09 129.64 319.09 161.1"/>
      <polygon class="cls-1" points="474.2 177.68 447.73 129.64 426.77 129.64 426.77 209.71 446.62 209.71 446.62 161.67 473.1 209.71 494.06 209.71 494.06 129.64 474.2 129.64 474.2 177.68"/>
      <rect class="cls-1" x="503.71" y="129.64" width="19.86" height="80.07"/>
      <path class="cls-1" d="M553.87,129.64c-7.11,0-12.32,1.73-15.66,5.19-3.34,3.46-5,8.87-5,16.24v37.22c0,7.37,1.66,12.78,5,16.24,3.34,3.46,8.55,5.19,15.66,5.19h40.25v-15.79h-34.94c-4.25-.05-6.39-2.3-6.39-6.76v-34.96c0-4.46,2.14-6.72,6.39-6.76h34.94v-15.79h-40.25Z"/>
      <path class="cls-1" d="M221.76,129.64c-7.11,0-12.32,1.73-15.66,5.19-3.34,3.46-5,8.87-5,16.24v37.22c0,7.37,1.66,12.78,5,16.24,3.34,3.46,8.55,5.19,15.66,5.19h40.25v-15.79h-34.94c-4.25-.05-6.39-2.3-6.39-6.76v-34.96c0-4.46,2.14-6.72,6.39-6.76h34.94v-15.79h-40.25Z"/>
      <polygon class="cls-1" points="700.58 193.7 700.58 129.64 680.73 129.64 680.73 209.71 726 209.71 726 193.7 700.58 193.7"/>
    </g>
    <g>
      <path class="cls-1" d="M251.87,29.2h19.22v54.47c0,7.48-1.69,12.91-5.07,16.29s-8.81,5.07-16.29,5.07h-24.56c-7.48,0-12.91-1.69-16.29-5.07-3.38-3.38-5.07-8.81-5.07-16.29V29.2h19.22v54.47c0,4.27,2.14,6.41,6.41,6.41h16.02c4.27,0,6.41-2.14,6.41-6.41V29.2Z"/>
      <path class="cls-1" d="M345.91,105.03h-20.58l-26-45.5v45.5h-19.5V29.2h20.58l26,45.5V29.2h19.5v75.83Z"/>
      <path class="cls-1" d="M194.62,79.79v5.2c0,6.98-1.63,12.1-4.91,15.38s-8.4,4.91-15.38,4.91h-39.52v-14.95h34.31c4.18-.04,6.28-2.18,6.28-6.41v-3.07c0-3.39-1.35-5.44-4.06-6.14-.66-.17-1.4-.26-2.22-.27h-23.33c-4.69-.58-8.29-2.13-10.8-4.65-.06-.06-.12-.12-.18-.19-3.16-3.28-4.72-8.34-4.72-15.19v-5.2c0-6.98,1.63-12.1,4.91-15.38s8.4-4.91,15.38-4.91h39.52v14.95h-34.31c-4.18.04-6.28,2.18-6.28,6.41v3.07c0,3.4,1.35,5.44,4.06,6.14.66.17,1.4.26,2.22.27h23.33c4.69.58,8.29,2.13,10.8,4.65.06.06.12.12.18.19,3.16,3.28,4.72,8.34,4.72,15.19Z"/>
    </g>
    <g>
      <path class="cls-1" d="M527.94,105.29h-19.63v-61.08h-15.56v-15.27h49.84v15.27h-14.64v61.08Z"/>
      <path class="cls-1" d="M551.79,28.94h20.72l18,23.32,18-23.32h20.72l-28.9,42.4v33.95h-19.63v-33.95l-28.9-42.4Z"/>
      <path class="cls-1" d="M483.55,105.29h-19.63V28.94h19.63v76.35Z"/>
      <path class="cls-1" d="M415.73,28.94h-.8c-7.03,0-12.18,1.65-15.48,4.95-3.3,3.3-4.94,8.46-4.94,15.48v35.49c0,7.03,1.64,12.18,4.94,15.48,3.3,3.3,8.46,4.95,15.48,4.95h39.79v-2.15h0v-12.91h-34.54c-4.21-.04-6.32-2.19-6.32-6.45v-33.34c0-4.25,2.11-6.41,6.32-6.45h34.54v-15.06h-38.99Z"/>
    </g>
    <path class="cls-1" d="M195.76,24.68v14.86c.73-.13,1.46-.26,2.19-.38v-14.83c-.73.12-1.47.23-2.19.35Z"/>
    <path class="cls-1" d="M580.96,30.29l9.54,12.36,6.8-8.81c-5.33-1.23-10.77-2.41-16.34-3.55Z"/>
    <path class="cls-1" d="M373.03,11.26c-61.02,0-118.47,4.37-168.77,12.08h24.64v11.04c5.62-.76,11.33-1.47,17.11-2.15v-8.89h57.81l2.12,3.71c4.83-.28,9.7-.53,14.61-.75v-2.97h31.23v2c7.03-.13,14.11-.2,21.26-.2,9.63,0,19.15.13,28.58.35,3.91-1.71,8.45-2.42,13.32-2.42h125.13c-49.88-7.54-106.71-11.81-167.03-11.81Z"/>
    <path class="cls-1" d="M720.63,98.33c4.77,4.94,8.42,10.12,10.76,15.52-.04-28.15-39.64-53.65-103.74-72.18l-6.19,9.08c46.12,12.64,81.12,28.89,99.17,47.58Z"/>
    <path class="cls-1" d="M25.35,98.42c17.88-18.58,52.48-34.75,98.08-47.35.26-.07.53-.1.8-.1v-1.74c0-3.37.36-6.57,1.15-9.52C57.18,58.39,14.7,84.7,14.67,113.86c2.33-5.37,5.95-10.52,10.68-15.44Z"/>
  </g>
  <g>
    <path class="cls-1" d="M646.85,194.02v-11.15h-17.64v16.7c6.11-1.79,11.99-3.64,17.64-5.55Z"/>
    <path class="cls-1" d="M731.39,127.81c0,13.32-8.84,26.02-24.93,37.7v-33.14c.4-.95.76-1.92,1.05-2.87.32-.95.57-1.9.76-2.86.41-1.92.62-3.86.62-5.82,0-25.28-34.43-48.25-90.63-65.36l1.42-2.08c63.29,17.22,104.67,40.95,110.9,67.46.54,2.3.81,4.64.81,6.98Z"/>
    <polygon class="cls-1" points="619.66 53.37 619.67 53.37 618.25 55.45 619.66 53.37"/>
    <path class="cls-1" d="M706.45,132.34c.4-.94.75-1.89,1.05-2.84-.29.95-.65,1.92-1.05,2.87v-.03Z"/>
    <path class="cls-1" d="M708.26,126.64c-.19.95-.44,1.9-.76,2.86.3-.94.55-1.89.76-2.86Z"/>
    <path class="cls-1" d="M554.68,215.57h-.81c-4.77,0-9.17-.69-12.99-2.31-2.61-1.11-4.94-2.65-6.89-4.67-1-1.03-1.85-2.16-2.59-3.37-.65.1-1.31.2-1.96.3v10.06h-59.79l-1.63-2.96c-5.12.43-10.3.82-15.52,1.19v1.77h-32.59c-15.32.61-30.96.93-46.87.93s-31.55-.32-46.87-.93h-12.94v-.58c-5.33-.27-10.61-.58-15.85-.92v1.51h-75.62c-4.77,0-9.17-.69-12.99-2.31-2.61-1.11-4.94-2.65-6.89-4.67-1.71-1.77-3-3.85-4-6.12-.19-.03-.37-.07-.55-.1v13.2h-10.18c54.2,9.44,117.83,14.87,185.89,14.87s131.69-5.43,185.89-14.87h-4.24Z"/>
    <path class="cls-1" d="M37.19,120.82c0,.99.07,1.97.17,2.95h-8.69v32.52c-9.09-9.04-13.99-18.6-13.99-28.48,0-2.35.28-4.68.81-6.98,6.17-26.2,46.68-49.72,108.75-66.87v.47c0,.7.03,1.41.06,2.1-54.12,17-87.1,39.55-87.1,64.29Z"/>
  </g>
</svg>