<?xml version="1.0" encoding="UTF-8"?>
<svg id="Layer_1" data-name="Layer 1" xmlns="http://www.w3.org/2000/svg" viewBox="0 0 253.85 88.35">
  <defs>
    <style>
      .cls-1 {
        fill: #e3243d;
      }

      .cls-1, .cls-2 {
        stroke-width: 0px;
      }

      .cls-2 {
        fill: #0d5da6;
      }
    </style>
  </defs>
  <g>
    <polygon class="cls-1" points="206.69 37.51 187.13 0 159.52 0 159.52 88.35 187.66 88.35 187.66 55.97 196.5 72.34 216.88 72.34 225.72 55.97 225.72 88.35 253.85 88.35 253.85 0 226.24 0 206.69 37.51"/>
    <polygon class="cls-2" points="206.69 46.46 184.62 4.14 163.66 4.14 163.66 84.21 183.52 84.21 183.52 39.6 198.97 68.2 214.41 68.2 229.86 39.6 229.86 84.21 249.71 84.21 249.71 4.14 228.75 4.14 206.69 46.46"/>
  </g>
  <g>
    <path class="cls-1" d="M69.62,38.3c-3.5-3.5-8.26-5.4-13.8-6.08l-.26-.03h-24.62c-.55,0-.95-.07-1.22-.14-.52-.13-.62-.28-.64-.31-.07-.09-.37-.55-.37-1.92v-3.2c0-1.55.38-1.93.41-1.96.02-.02.38-.39,1.87-.41-.04,0,40.09,0,40.09,0V0H25.5c-7.86,0-14.55,1.84-19.11,6.4S0,17.65,0,25.51v5.43c0,7.67,1.74,14.24,6.08,18.79.14.15.26.27.3.32,3.5,3.5,8.26,5.4,13.8,6.08l.26.03h24.62c.55,0,.95.07,1.22.14.51.13.62.28.64.31.07.09.37.56.37,1.92v3.2c0,1.55-.38,1.94-.41,1.96-.02.02-.38.39-1.87.41.04,0-40.09,0-40.09,0v24.25h45.58c7.86,0,14.55-1.84,19.11-6.4,4.56-4.56,6.39-11.26,6.39-19.11v-5.43c0-7.67-1.74-14.24-6.08-18.79-.14-.15-.26-.27-.31-.32Z"/>
    <path class="cls-2" d="M71.68,57.41v5.43c0,7.28-1.7,12.63-5.12,16.05-3.42,3.42-8.77,5.13-16.05,5.13H9.25v-15.61h35.82c4.36-.05,6.55-2.27,6.55-6.69v-3.2c0-3.54-1.41-5.68-4.24-6.41-.69-.18-1.46-.27-2.32-.28h-24.35c-4.9-.61-8.65-2.23-11.28-4.85-.06-.06-.13-.13-.19-.2-3.29-3.42-4.93-8.71-4.93-15.85v-5.43c0-7.28,1.7-12.63,5.12-16.05s8.77-5.13,16.05-5.13h41.26v15.61H30.94c-4.36.05-6.55,2.28-6.55,6.69v3.2c0,3.55,1.41,5.68,4.24,6.41.69.18,1.46.27,2.32.28h24.35c4.9.61,8.65,2.23,11.28,4.85.06.06.13.13.19.2,3.29,3.42,4.93,8.71,4.93,15.85Z"/>
  </g>
  <g>
    <path class="cls-1" d="M107.62,0c-7.91,0-14.63,1.85-19.22,6.43-4.59,4.59-6.42,11.32-6.42,19.22v37.05c0,7.9,1.84,14.63,6.42,19.22,4.58,4.58,11.31,6.43,19.22,6.43h45.86v-24.36s-40.38,0-40.34,0c-1.51-.02-1.88-.39-1.9-.42-.03-.03-.42-.42-.42-1.99V26.77c0-1.56.39-1.96.42-1.99.03-.03.4-.41,1.86-.42h40.38V0h-45.86Z"/>
    <path class="cls-2" d="M108.46,4.32h-.84c-7.33,0-12.72,1.72-16.16,5.17-3.44,3.44-5.16,8.83-5.16,16.16v37.05c0,7.33,1.71,12.72,5.16,16.16,3.44,3.44,8.83,5.17,16.16,5.17h41.54v-2.24h0v-13.48h-36.06c-4.39-.05-6.6-2.29-6.6-6.73V26.77c0-4.44,2.2-6.69,6.6-6.73h36.06V4.32h-40.7Z"/>
  </g>
</svg>