<?xml version="1.0" encoding="UTF-8"?>
<svg id="Layer_1" data-name="Layer 1" xmlns="http://www.w3.org/2000/svg" viewBox="0 0 397.15 397.15">
  <defs>
    <style>
      .cls-1 {
        fill: #6e9eca;
        stroke-width: 0px;
      }
    </style>
  </defs>
  <path class="cls-1" d="M256.73,243.5h-124.61c-2.72,0-4.92,2.2-4.92,4.92v33.23c0,2.72,2.2,4.92,4.92,4.92h124.61c5.51,0,10.5,2.24,14.13,5.87,3.63,3.63,5.87,8.63,5.87,14.13s-2.24,10.5-5.87,14.13c-3.63,3.63-8.63,5.87-14.13,5.87-6.1,0-10.08-2.08-12.49-4.49-2.41-2.41-3.36-5.23-3.36-7.21,0-2.72-2.2-4.92-4.92-4.92h-33.23c-2.72,0-4.92,2.2-4.92,4.92,0,13.58,5.58,27.27,15.74,37.57,5.06,5.12,11.25,9.41,18.45,12.42,7.3,3.05,15.59,4.78,24.72,4.78,17.39,0,33.17-7.08,44.58-18.49,11.41-11.41,18.49-27.19,18.49-44.58s-7.08-33.17-18.49-44.58c-11.41-11.41-27.19-18.49-44.58-18.49Z"/>
  <path class="cls-1" d="M32.43,153.65h124.61c17.39,0,33.17-7.08,44.58-18.49,11.41-11.41,18.49-27.19,18.49-44.58s-7.08-33.17-18.49-44.58c-11.41-11.41-27.19-18.49-44.58-18.49-9.13,0-17.42,1.72-24.72,4.78-7.2,3.01-13.4,7.3-18.45,12.42-10.16,10.29-15.74,23.99-15.74,37.57,0,2.72,2.2,4.92,4.92,4.92h33.23c2.72,0,4.92-2.2,4.92-4.92,0-1.97.96-4.8,3.36-7.21,2.41-2.41,6.38-4.49,12.49-4.49,5.51,0,10.5,2.24,14.13,5.87,3.63,3.63,5.87,8.63,5.87,14.13s-2.24,10.5-5.87,14.13c-3.63,3.63-8.63,5.87-14.13,5.87H32.43c-2.72,0-4.92,2.2-4.92,4.92v33.23c0,2.72,2.2,4.92,4.92,4.92Z"/>
  <path class="cls-1" d="M348.72,98.28c-12.92-12.92-30.77-20.93-50.45-20.93s-37.54,8.01-50.45,20.93c-12.92,12.92-20.93,30.77-20.93,50.45,0,1.3.52,2.56,1.44,3.48.92.92,2.17,1.44,3.48,1.44h33.23c2.72,0,4.92-2.2,4.92-4.92,0-7.8,3.17-14.87,8.3-20.01,5.13-5.13,12.21-8.3,20.01-8.3s14.87,3.17,20.01,8.3c5.13,5.13,8.3,12.21,8.3,20.01s-3.17,14.87-8.3,20.01c-5.13,5.13-12.21,8.3-20.01,8.3H32.43c-2.72,0-4.92,2.2-4.92,4.92v33.23c0,2.72,2.2,4.92,4.92,4.92h265.84c19.69,0,37.54-8.01,50.45-20.93,12.92-12.92,20.93-30.77,20.93-50.45s-8.01-37.54-20.93-50.45Z"/>
  <rect class="cls-1" x="27.5" y="243.5" width="76.3" height="43.07" rx="4.92" ry="4.92"/>
</svg>