<?xml version="1.0" encoding="UTF-8"?>
<svg id="Layer_1" data-name="Layer 1" xmlns="http://www.w3.org/2000/svg" viewBox="0 0 397.15 397.15">
  <defs>
    <style>
      .cls-1 {
        fill: #0d5da6;
        stroke-width: 0px;
      }
    </style>
  </defs>
  <path class="cls-1" d="M368.43,243.55l-6.56-24.47c-.72-2.7-3.5-4.31-6.2-3.58l-62.88,16.85-58.76-33.92,58.53-33.79,62.88,16.85c2.7.72,5.48-.88,6.2-3.58l6.56-24.47c.72-2.7-.88-5.48-3.58-6.2l-52.77-14.14,14.18-52.92c.72-2.7-.88-5.48-3.58-6.2l-24.47-6.56c-2.7-.72-5.48.88-6.2,3.58l-16.85,62.88-58.76,33.92v-67.59l46.03-46.03c1.98-1.98,1.98-5.19,0-7.16l-17.91-17.91c-1.98-1.98-5.19-1.98-7.16,0l-38.63,38.63-38.74-38.74c-1.98-1.98-5.19-1.98-7.16,0l-17.91,17.91c-1.98,1.98-1.98,5.19,0,7.16l46.03,46.03v67.85l-58.53-33.79-16.85-62.88c-.72-2.7-3.5-4.31-6.2-3.58l-24.47,6.56c-2.7.72-4.31,3.5-3.58,6.2l14.14,52.77-52.92,14.18c-2.7.72-4.31,3.5-3.58,6.2l6.56,24.47c.72,2.7,3.5,4.31,6.2,3.58l62.88-16.85,58.76,33.92-58.53,33.79-62.88-16.85c-2.7-.72-5.48.88-6.2,3.58l-6.56,24.47c-.72,2.7.88,5.48,3.58,6.2l52.77,14.14-14.18,52.92c-.72,2.7.88,5.48,3.58,6.2l24.47,6.56c2.7.72,5.48-.88,6.2-3.58l16.85-62.88,58.76-33.92v67.59l-46.03,46.03c-1.98,1.98-1.98,5.19,0,7.16l17.91,17.91c1.98,1.98,5.19,1.98,7.16,0l38.63-38.63,38.74,38.74c1.98,1.98,5.19,1.98,7.16,0l17.91-17.91c1.98-1.98,1.98-5.19,0-7.16l-46.03-46.03v-67.85l58.53,33.79,16.85,62.88c.72,2.7,3.5,4.31,6.2,3.58l24.47-6.56c2.7-.72,4.31-3.5,3.58-6.2l-14.14-52.77,52.92-14.18c2.7-.72,4.31-3.5,3.58-6.2Z"/>
</svg>