<?xml version="1.0" encoding="UTF-8"?>
<svg id="Layer_1" data-name="Layer 1" xmlns="http://www.w3.org/2000/svg" viewBox="0 0 397.15 397.15">
  <defs>
    <style>
      .cls-1 {
        fill: #e3243d;
        stroke-width: 0px;
      }
    </style>
  </defs>
  <path class="cls-1" d="M324.52,143.89c-12.82-43.64-37.69-68.31-37.69-68.32-2.66-3.38-7.49-1.74-8.51,1.59l-6.86,22.27c-3.66,11.89-10.98,20.53-17.56,24.36-6.84,3.99-9.15,2.07-11.77-.79-10.43-11.36-21.56-47.15-26.01-81l-1.4-10.64c-.32-2.43-2.39-4.25-4.85-4.25-.08,0-50.58-7.55-116.64,100.69-17.98,29.46-30.55,62-30.55,92.62,0,21.24,6.45,40.61,15.8,57.52,7.84,14.18,17.75,26.71,27.75,37.28,31.93,33.77,72.62,54.22,72.62,54.23,1.69,1.02,3.82.92,5.41-.24,1.59-1.16,2.33-3.16,1.88-5.08l-6.7-28.3c-6.78-28.61-6.22-49.89-3.04-65.21,4.23,10.28,9.44,19.96,14.98,28.8,21.73,34.73,51.23,59.47,51.24,59.47,1.67,1.49,4.14,1.66,6,.4,0,0,7.58-4.82,14.36-10.13,12.25-9.6,39.31-33.42,56.4-68.53,8.89-18.26,15.12-39.62,15.12-63.62,0-29.74-4.37-54.11-9.96-73.12ZM197.64,193.87c-1.66-.83-3.64-.65-5.12.46l-19.56,14.67c-.08.06-.18.14-.32.24-.27.21-.65.51-1.12.92-.85.72-2,1.77-3.36,3.15-5.49,5.57-14.43,16.66-20.78,34.58-4.8,13.54-8.09,30.89-7.36,52.56-12.93-12.08-26.65-27.84-35.06-45.92-4.99-10.73-8.07-22.18-8.07-34.11,0-18.4,6.56-39.11,17.23-59.74,17.89-34.61,46.74-67.87,72.53-87.92,5.05,24.21,14.55,56.8,31.61,74.42,5.71,5.9,12.47,10.35,20.41,12.09,8.4,1.84,16.94.89,24.96-2.22,8.63-3.34,16.68-9.18,23.48-16.82,6.54,17.05,13.13,42.69,13.13,76.78,0,17.11-4.35,32.75-10.83,46.56-11.51,24.56-29.63,43.1-41.27,53.32-17-18.11-47.81-56.32-47.81-94.2v-24.45c0-1.85-1.05-3.55-2.7-4.37Z"/>
</svg>